<svg xmlns="http://www.w3.org/2000/svg" width="16" height="16" viewBox="0 0 16 16"><defs><style>.a{fill:none;}.b{fill:#7a7a7a;}.c,.d{stroke:none;}.d{fill:#7a7a7a;}</style></defs><g transform="translate(-505 -498)"><g class="a" transform="translate(505 499)"><path class="c" d="M2,0H14a1.941,1.941,0,0,1,2,1.875v11.25A1.941,1.941,0,0,1,14,15H2a1.941,1.941,0,0,1-2-1.875V1.875A1.941,1.941,0,0,1,2,0Z"/><path class="d" d="M 2 2 L 2 13 L 14 13 L 14 2 L 2 2 M 2 0 L 14 0 C 15.10457038879395 0 16 0.8394699096679688 16 1.875 L 16 13.125 C 16 14.16053009033203 15.10457038879395 15 14 15 L 2 15 C 0.8954296112060547 15 0 14.16053009033203 0 13.125 L 0 1.875 C 0 0.8394699096679688 0.8954296112060547 0 2 0 Z"/></g><rect class="b" width="2" height="3" transform="translate(512 498)"/><g transform="translate(-1)"><path class="b" d="M8,4A2,2,0,1,1,6,6,2,2,0,0,1,8,4M8,9c2.21,0,4,.9,4,2v1H4V11C4,9.9,5.79,9,8,9Z" transform="translate(506 499)"/></g></g></svg>