<svg xmlns="http://www.w3.org/2000/svg" width="19.685" height="18" viewBox="0 0 19.685 18"><defs><style>.a{fill:#7a7a7a;}</style></defs><path class="a" d="M10,4a4,4,0,1,0,4,4,4,4,0,0,0-4-4m5.824,8a.26.26,0,0,0-.26.21l-.19,1.32a4.994,4.994,0,0,0-.85.47l-1.24-.5c-.11,0-.24,0-.31.13l-1,1.73a.248.248,0,0,0,.06.32l1.06.82a4.182,4.182,0,0,0,0,1l-1.06.82a.26.26,0,0,0-.06.32l1,1.73c.06.13.19.13.31.13l1.24-.5a4.114,4.114,0,0,0,.85.47l.19,1.32a.252.252,0,0,0,.26.21h2a.255.255,0,0,0,.24-.21l.19-1.32a5.31,5.31,0,0,0,.84-.47l1.23.5c.13,0,.26,0,.33-.13l1-1.73a.26.26,0,0,0-.06-.32l-1.07-.82a4.211,4.211,0,0,0,.04-.5,2.81,2.81,0,0,0-.04-.5l1.06-.82a.26.26,0,0,0,.06-.32l-1-1.73c-.06-.13-.19-.13-.32-.13l-1.23.5a4.389,4.389,0,0,0-.85-.47l-.19-1.32a.236.236,0,0,0-.23-.21h-2M10,14c-4.42,0-8,1.79-8,4v2h9.68a6.947,6.947,0,0,1-.04-5.91A14.619,14.619,0,0,0,10,14m6.824,1.5a1.5,1.5,0,1,1-1.5,1.5A1.5,1.5,0,0,1,16.824,15.5Z" transform="translate(-2 -4)"/></svg>