<svg xmlns="http://www.w3.org/2000/svg" width="13.091" height="16" viewBox="0 0 13.091 16"><defs><style>.a{fill:#7a7a7a;}</style></defs><path class="a" d="M9.545,1,3,3.909V8.273A9.051,9.051,0,0,0,9.545,17a9.051,9.051,0,0,0,6.545-8.727V3.909L9.545,1m0,2.909A2.182,2.182,0,1,1,7.364,6.091,2.182,2.182,0,0,1,9.545,3.909m3.731,8.727a7.047,7.047,0,0,1-3.731,2.851,7.047,7.047,0,0,1-3.731-2.851,7.393,7.393,0,0,1-.633-1.113c0-1.2,1.971-2.182,4.364-2.182s4.364.96,4.364,2.182A7.393,7.393,0,0,1,13.276,12.636Z" transform="translate(-3 -1)"/></svg>